<svg width="500" height="500" viewBox="0 0 500 500" fill="none" xmlns="http://www.w3.org/2000/svg">
<circle cx="250" cy="250" r="250" fill="black"/>
<path d="M69.9 242.3C69.9 221.9 74.5 203.6 83.7 187.4C92.9 171 105.4 158.2 121.2 149C137.2 139.8 154.9 135.2 174.3 135.2C197.1 135.2 217 140.7 234 151.7C251 162.7 263.4 178.3 271.2 198.5H238.5C232.7 185.9 224.3 176.2 213.3 169.4C202.5 162.6 189.5 159.2 174.3 159.2C159.7 159.2 146.6 162.6 135 169.4C123.4 176.2 114.3 185.9 107.7 198.5C101.1 210.9 97.8 225.5 97.8 242.3C97.8 258.9 101.1 273.5 107.7 286.1C114.3 298.5 123.4 308.1 135 314.9C146.6 321.7 159.7 325.1 174.3 325.1C189.5 325.1 202.5 321.8 213.3 315.2C224.3 308.4 232.7 298.7 238.5 286.1H271.2C263.4 306.1 251 321.6 234 332.6C217 343.4 197.1 348.8 174.3 348.8C154.9 348.8 137.2 344.3 121.2 335.3C105.4 326.1 92.9 313.4 83.7 297.2C74.5 281 69.9 262.7 69.9 242.3Z" fill="white"/>
<path d="M430 232L361.27 391H333.83L265.1 232.228H277.644H290.449L347.681 369.1L404.912 232H430Z" fill="#059B44"/>
<rect x="159" y="232" width="130" height="30" fill="#059B44"/>
</svg>
