<svg width="500" height="500" viewBox="0 0 500 500" fill="none" xmlns="http://www.w3.org/2000/svg">
<circle cx="250" cy="250" r="250" fill="url(#paint0_radial_5_16)"/>
<path d="M68.9 216.3C68.9 195.9 73.5 177.6 82.7 161.4C91.9 145 104.4 132.2 120.2 123C136.2 113.8 153.9 109.2 173.3 109.2C196.1 109.2 216 114.7 233 125.7C250 136.7 262.4 152.3 270.2 172.5H237.5C231.7 159.9 223.3 150.2 212.3 143.4C201.5 136.6 188.5 133.2 173.3 133.2C158.7 133.2 145.6 136.6 134 143.4C122.4 150.2 113.3 159.9 106.7 172.5C100.1 184.9 96.8 199.5 96.8 216.3C96.8 232.9 100.1 247.5 106.7 260.1C113.3 272.5 122.4 282.1 134 288.9C145.6 295.7 158.7 299.1 173.3 299.1C188.5 299.1 201.5 295.8 212.3 289.2C223.3 282.4 231.7 272.7 237.5 260.1H270.2C262.4 280.1 250 295.6 233 306.6C216 317.4 196.1 322.8 173.3 322.8C153.9 322.8 136.2 318.3 120.2 309.3C104.4 300.1 91.9 287.4 82.7 271.2C73.5 255 68.9 236.7 68.9 216.3Z" fill="white"/>
<path d="M430 230L361.27 389H333.83L265.1 230.228H277.644H290.449L347.681 367.1L404.912 230H430Z" fill="white"/>
<rect x="159" y="230.228" width="129.62" height="19.6184" fill="white"/>
<circle opacity="0.4" cx="250" cy="250" r="224" stroke="#0085FF" stroke-width="2"/>
<defs>
<radialGradient id="paint0_radial_5_16" cx="0" cy="0" r="1" gradientUnits="userSpaceOnUse" gradientTransform="translate(250 250) rotate(90) scale(250)">
<stop stop-color="#0038FF"/>
<stop offset="1" stop-color="#002299"/>
</radialGradient>
</defs>
</svg>
